<svg width="319" height="354" viewBox="0 0 319 354" fill="none" xmlns="http://www.w3.org/2000/svg">
<rect width="319" height="354" fill="#1E1E1E"/>
<path d="M147.028 3.24667C154.672 -1.0822 164.026 -1.0822 171.669 3.24668L306.018 79.3375C313.854 83.7756 318.697 92.0852 318.697 101.091V252.447C318.697 261.452 313.854 269.762 306.018 274.2L171.669 350.291C164.026 354.62 154.672 354.62 147.028 350.291L12.6796 274.2C4.84354 269.762 1.52588e-05 261.452 1.52588e-05 252.447V101.091C1.52588e-05 92.0852 4.84355 83.7756 12.6796 79.3375L147.028 3.24667Z" fill="url(#paint0_linear_0_1)"/>
<path d="M147.539 13.2323C155.177 8.91168 164.521 8.91168 172.158 13.2323L297.414 84.0897C305.256 88.5261 310.104 96.8391 310.104 105.849V246.688C310.104 255.698 305.256 264.012 297.414 268.448L172.158 339.305C164.521 343.626 155.177 343.626 147.539 339.305L22.2838 268.448C14.4416 264.012 9.59329 255.698 9.59329 246.688V105.849C9.59329 96.8391 14.4416 88.5261 22.2838 84.0897L147.539 13.2323Z" fill="url(#paint1_linear_0_1)"/>
<path d="M86.3487 86.2688L64.3487 124.269H192.349L174.349 155.769V224.769L254.349 86.2688H86.3487Z" fill="white" stroke="white"/>
<path d="M232.349 274.769L254.349 236.769H126.349L144.349 205.269V136.269L64.3487 274.769H232.349Z" fill="white" stroke="white"/>
<defs>
<linearGradient id="paint0_linear_0_1" x1="315.849" y1="264.174" x2="-1.83951" y2="98.3448" gradientUnits="userSpaceOnUse">
<stop stop-color="#631A9B"/>
<stop offset="1" stop-color="#B66AF0"/>
</linearGradient>
<linearGradient id="paint1_linear_0_1" x1="307.418" y1="258.59" x2="8.00946" y2="102.118" gradientUnits="userSpaceOnUse">
<stop stop-color="#3C096C"/>
<stop offset="1" stop-color="#9D4EDD"/>
</linearGradient>
</defs>
</svg>
