<svg width="1187" height="354" viewBox="0 0 1187 354" fill="none" xmlns="http://www.w3.org/2000/svg">
<path d="M147.028 3.24664C154.672 -1.08224 164.026 -1.08223 171.669 3.24665L306.018 79.3374C313.854 83.7755 318.697 92.0852 318.697 101.091V252.447C318.697 261.452 313.854 269.762 306.018 274.2L171.669 350.291C164.026 354.62 154.672 354.62 147.028 350.291L12.6796 274.2C4.84354 269.762 1.52588e-05 261.452 1.52588e-05 252.447V101.091C1.52588e-05 92.0852 4.84355 83.7755 12.6796 79.3374L147.028 3.24664Z" fill="url(#paint0_linear_0_1)"/>
<path d="M147.539 13.2323C155.177 8.91164 164.521 8.91165 172.158 13.2323L297.414 84.0897C305.256 88.5261 310.104 96.8391 310.104 105.849V246.688C310.104 255.698 305.256 264.011 297.414 268.448L172.158 339.305C164.521 343.626 155.177 343.626 147.539 339.305L22.2838 268.448C14.4416 264.011 9.59329 255.698 9.59329 246.688V105.849C9.59329 96.8391 14.4416 88.5261 22.2838 84.0897L147.539 13.2323Z" fill="url(#paint1_linear_0_1)"/>
<path d="M86.3487 86.2688L64.3487 124.269H192.349L174.349 155.769V224.769L254.349 86.2688H86.3487Z" fill="white" stroke="white"/>
<path d="M232.349 274.769L254.349 236.769H126.349L144.349 205.269V136.269L64.3487 274.769H232.349Z" fill="white" stroke="white"/>
<path d="M442.006 262.475H565.395V301.269H383.559V271.874L504.213 91.5764H383.9V52.4406H562.318L562.489 80.9807L442.006 262.475ZM692.372 304.687C678.131 304.687 665.199 302.351 653.578 297.68C641.957 293.009 631.988 286.628 623.671 278.539C615.354 270.564 608.917 261.165 604.359 250.341C599.916 239.404 597.694 227.725 597.694 215.307V208.471C597.694 194.343 599.916 181.469 604.359 169.848C608.803 158.113 615.012 148.03 622.987 139.599C630.963 131.168 640.419 124.617 651.357 119.946C662.294 115.274 674.2 112.939 687.074 112.939C700.404 112.939 712.253 115.16 722.621 119.604C733.103 123.933 741.99 130.086 749.281 138.061C756.459 146.036 761.928 155.663 765.688 166.943C769.447 178.108 771.327 190.47 771.327 204.028V224.194H645.888V224.706C647.483 232.112 649.534 238.093 652.04 242.651C654.547 247.094 657.908 251.139 662.123 254.784C666.453 258.544 671.409 261.449 676.991 263.5C682.574 265.551 688.669 266.576 695.277 266.576C704.62 266.576 713.677 264.81 722.45 261.279C731.223 257.747 738.344 252.449 743.813 245.385L767.567 271.02C761.529 279.565 751.959 287.312 738.857 294.262C725.754 301.212 710.26 304.687 692.372 304.687ZM686.732 151.391C681.378 151.391 676.479 152.359 672.035 154.296C667.592 156.119 663.718 158.796 660.414 162.328C656.996 165.86 654.148 170.076 651.869 174.975C649.591 179.874 647.882 185.343 646.742 191.381H724.672V187.621C724.672 182.608 723.76 177.88 721.938 173.437C720.115 168.993 717.608 165.12 714.418 161.816C711.228 158.626 707.297 156.119 702.626 154.296C698.069 152.359 692.771 151.391 686.732 151.391ZM945.644 112.939C952.821 112.939 959.429 113.451 965.468 114.477C971.62 115.388 976.576 116.414 980.336 117.553L973.329 164.892C967.063 163.411 960.626 162.328 954.018 161.645C947.523 160.847 941.314 160.448 935.39 160.448C929.237 160.448 923.655 161.018 918.642 162.157C913.743 163.183 909.356 164.778 905.482 166.943C900.811 169.449 896.824 172.639 893.52 176.513C890.216 180.387 887.481 184.944 885.316 190.185V301.269H837.807V116.357H882.069L883.949 142.504L884.291 146.606C891.811 136.124 900.811 127.921 911.293 121.996C921.775 115.958 933.225 112.939 945.644 112.939ZM1143.71 301.269L1140.98 275.292C1134.71 284.521 1127.14 291.755 1118.25 296.996C1109.48 302.237 1099.85 304.858 1089.37 304.858C1079.8 304.858 1071.03 303.377 1063.05 300.414C1055.08 297.452 1048.24 292.724 1042.54 286.23C1036.85 279.849 1032.4 271.703 1029.21 261.791C1026.14 251.765 1024.6 239.745 1024.6 225.732V116.357H1072.11V226.073C1072.11 233.593 1072.62 239.916 1073.65 245.043C1074.79 250.17 1076.55 254.272 1078.94 257.348C1081.34 260.538 1084.47 262.817 1088.34 264.184C1092.22 265.551 1096.95 266.235 1102.53 266.235C1107.54 266.235 1112.04 265.722 1116.03 264.697C1120.13 263.671 1123.72 262.19 1126.8 260.253C1129.42 258.544 1131.75 256.493 1133.8 254.101C1135.85 251.708 1137.62 249.031 1139.1 246.069V116.357H1186.78V301.269H1143.71Z" fill="white"/>
<defs>
<linearGradient id="paint0_linear_0_1" x1="315.849" y1="264.174" x2="-1.83951" y2="98.3448" gradientUnits="userSpaceOnUse">
<stop stop-color="#631A9B"/>
<stop offset="1" stop-color="#B66AF0"/>
</linearGradient>
<linearGradient id="paint1_linear_0_1" x1="307.418" y1="258.59" x2="8.00946" y2="102.118" gradientUnits="userSpaceOnUse">
<stop stop-color="#3C096C"/>
<stop offset="1" stop-color="#9D4EDD"/>
</linearGradient>
</defs>
</svg>
